<svg width="1440" height="598" viewBox="0 0 1440 598" fill="none" xmlns="http://www.w3.org/2000/svg">
<path d="M1440 0H2V597H1440V0Z" fill="#060606"/>
<path d="M0 468C150.663 446.805 227.404 98.1877 479.996 94.184C732.588 90.1802 720 152.86 960.004 152.86C1200 152.86 1319.11 94.2971 1440 94.184" stroke="#222" stroke-width="2"/>
<path d="M0 546C124.569 543.667 239.157 295.135 480 295C720.843 294.865 720 395.038 960 395.018C1200 395.018 1319.26 295.154 1440 295" stroke="#222" stroke-width="2"/>
<path d="M2 597C167.075 553.069 220.27 62.8311 481.333 52.836C742.397 42.8409 721 125.768 960.667 125.754C1200.33 125.754 1319.09 53.0047 1440 52.836" stroke="#222" stroke-width="2"/>
<path d="M0 581C123.366 579.468 239.531 358.061 479.997 358C720.472 357.939 720 463.994 960.003 463.994C1200 463.994 1319.23 358.163 1440 358" stroke="#222" stroke-width="2"/>
<path d="M0 482C202.471 472.638 355.754 161.559 720.006 161.002C1084.25 160.444 1256.06 290.647 1440 291.357" stroke="#222" stroke-width="2"/>
</svg>
