<svg width="1200" height="370" viewBox="0 0 1200 370" fill="none" xmlns="http://www.w3.org/2000/svg">
<path d="M1193 0.000488281H6.83325C3.51954 0.000488281 0.833252 2.68678 0.833252 6.00049V364C0.833252 367.314 3.51952 370 6.83322 370H1193C1196.31 370 1199 367.314 1199 364V6.00049C1199 2.68678 1196.31 0.000488281 1193 0.000488281Z" fill="#333333"/>
<path d="M2 305.5C168.854 302.236 168.526 208.368 490 205C811.487 201.632 1043.16 126.692 1199 126" stroke="#444444" stroke-width="2"/>
<path d="M0.5 204.5C174.567 199.678 190.646 204.058 492 204C793.354 203.942 1037.68 288.514 1198.5 290" stroke="#444444" stroke-width="2"/>
<path d="M0.5 26C157.236 24.1812 189.56 204.041 489.183 204.005C788.806 203.97 1045.94 235.616 1198 236" stroke="#444444" stroke-width="2"/>
<path d="M1.5 105.5C166.812 102.018 192.448 205.07 493.757 204.931C665.067 204.852 816.018 269.636 946 296C1044.63 316.005 1132.38 330.824 1198.5 331" stroke="#444444" stroke-width="2"/>
<path d="M1 359.001C194.467 349.08 175.682 209.401 490 208C804.305 206.599 1045.53 24.7958 1198.5 25" stroke="#444444" stroke-width="2"/>
<path d="M571.996 192.302C574.58 192.302 576.813 192.79 578.694 193.764C580.598 194.716 582.049 196.088 583.046 197.878C584.066 199.669 584.576 201.777 584.576 204.202C584.576 206.628 584.066 208.736 583.046 210.526C582.049 212.294 580.598 213.654 578.694 214.606C576.813 215.536 574.58 216 571.996 216H564.618V192.302H571.996ZM571.996 213.45C575.056 213.45 577.391 212.646 579 211.036C580.609 209.404 581.414 207.126 581.414 204.202C581.414 201.256 580.598 198.955 578.966 197.3C577.357 195.646 575.033 194.818 571.996 194.818H567.712V213.45H571.996ZM598.155 197.028C599.56 197.028 600.83 197.334 601.963 197.946C603.096 198.536 603.98 199.431 604.615 200.632C605.272 201.834 605.601 203.296 605.601 205.018V216H602.541V205.46C602.541 203.602 602.076 202.185 601.147 201.21C600.218 200.213 598.948 199.714 597.339 199.714C595.707 199.714 594.404 200.224 593.429 201.244C592.477 202.264 592.001 203.749 592.001 205.698V216H588.907V190.84H592.001V200.02C592.613 199.068 593.452 198.332 594.517 197.81C595.605 197.289 596.818 197.028 598.155 197.028ZM635.725 197.368L629.911 216H626.715L622.227 201.21L617.739 216H614.543L608.695 197.368H611.857L616.141 213.008L620.765 197.368H623.927L628.449 213.042L632.665 197.368H635.725ZM637.89 206.616C637.89 204.712 638.275 203.046 639.046 201.618C639.816 200.168 640.87 199.046 642.208 198.252C643.568 197.459 645.075 197.062 646.73 197.062C648.362 197.062 649.778 197.414 650.98 198.116C652.181 198.819 653.076 199.703 653.666 200.768V197.368H656.794V216H653.666V212.532C653.054 213.62 652.136 214.527 650.912 215.252C649.71 215.955 648.305 216.306 646.696 216.306C645.041 216.306 643.545 215.898 642.208 215.082C640.87 214.266 639.816 213.122 639.046 211.648C638.275 210.175 637.89 208.498 637.89 206.616ZM653.666 206.65C653.666 205.245 653.382 204.021 652.816 202.978C652.249 201.936 651.478 201.142 650.504 200.598C649.552 200.032 648.498 199.748 647.342 199.748C646.186 199.748 645.132 200.02 644.18 200.564C643.228 201.108 642.468 201.902 641.902 202.944C641.335 203.987 641.052 205.211 641.052 206.616C641.052 208.044 641.335 209.291 641.902 210.356C642.468 211.399 643.228 212.204 644.18 212.77C645.132 213.314 646.186 213.586 647.342 213.586C648.498 213.586 649.552 213.314 650.504 212.77C651.478 212.204 652.249 211.399 652.816 210.356C653.382 209.291 653.666 208.056 653.666 206.65ZM671.35 197.028C673.617 197.028 675.453 197.72 676.858 199.102C678.264 200.462 678.966 202.434 678.966 205.018V216H675.906V205.46C675.906 203.602 675.442 202.185 674.512 201.21C673.583 200.213 672.314 199.714 670.704 199.714C669.072 199.714 667.769 200.224 666.794 201.244C665.842 202.264 665.366 203.749 665.366 205.698V216H662.272V197.368H665.366V200.02C665.978 199.068 666.806 198.332 667.848 197.81C668.914 197.289 670.081 197.028 671.35 197.028ZM685.868 194.342C685.279 194.342 684.78 194.138 684.372 193.73C683.964 193.322 683.76 192.824 683.76 192.234C683.76 191.645 683.964 191.146 684.372 190.738C684.78 190.33 685.279 190.126 685.868 190.126C686.435 190.126 686.911 190.33 687.296 190.738C687.704 191.146 687.908 191.645 687.908 192.234C687.908 192.824 687.704 193.322 687.296 193.73C686.911 194.138 686.435 194.342 685.868 194.342ZM687.364 197.368V216H684.27V197.368H687.364Z" fill="#F2F2F2"/>
<path d="M524.85 227.945C537.246 208.974 531.915 183.546 512.944 171.15C493.973 158.755 468.545 164.085 456.15 183.057C443.754 202.028 449.085 227.455 468.056 239.851C487.027 252.247 512.454 246.916 524.85 227.945Z" fill="url(#paint0_linear)"/>
<path fill-rule="evenodd" clip-rule="evenodd" d="M479.648 184.685C470.251 184.666 462.616 194.058 462.593 205.663C473.488 205.685 474.559 205.687 475.055 205.688L479.606 205.697C482.754 205.703 483.793 205.706 484.422 205.707C484.443 217.197 492.077 226.504 501.491 226.504C510.919 226.504 518.561 217.171 518.561 205.659C506.949 205.659 506.459 205.659 505.969 205.659H501.491H496.619C496.611 194.087 489.024 184.703 479.648 184.685Z" fill="url(#paint1_linear)"/>
<defs>
<linearGradient id="paint0_linear" x1="358.62" y1="121.978" x2="542.698" y2="242.939" gradientUnits="userSpaceOnUse">
<stop stop-color="white"/>
<stop offset="0.207643" stop-color="#A5A5A5"/>
<stop offset="0.869037"/>
</linearGradient>
<linearGradient id="paint1_linear" x1="466.367" y1="193.678" x2="516.591" y2="218.954" gradientUnits="userSpaceOnUse">
<stop stop-color="#8B5BF1"/>
<stop offset="1" stop-color="#D637A6"/>
</linearGradient>
</defs>
</svg>
