<svg width="1201" height="370" viewBox="0 0 1201 370" fill="none" xmlns="http://www.w3.org/2000/svg">
<path d="M1194 0H7.83301C4.5193 0 1.83301 2.68629 1.83301 6V364C1.83301 367.314 4.51927 370 7.83298 370H1194C1197.31 370 1200 367.314 1200 364V6C1200 2.68629 1197.31 0 1194 0Z" fill="#333333"/>
<path d="M1 319.88C167.854 315.887 279.019 173.752 600.494 169.632C921.981 165.511 1044.16 83.3955 1200 82.5498" stroke="#444444" stroke-width="2"/>
<path d="M1 319.88C175.067 311.706 299.146 99.6011 600.5 99.502C901.854 99.4029 1039.18 240.907 1200 243.427" stroke="#444444" stroke-width="2"/>
<path d="M1.83301 344.94C158.853 342.631 300.752 148.193 600.917 148.147C901.082 148.102 1047.66 263.726 1200 264.213" stroke="#444444" stroke-width="2"/>
<path d="M1 344.94C166.729 338.838 298.435 100.483 600.504 100.239C902.565 99.9962 1046.37 215.754 1200 216.469" stroke="#444444" stroke-width="2"/>
<path d="M1.83301 358.944C195.327 338.33 286.561 39.84 600.923 36.9284C915.272 34.0168 1047.01 115.908 1200 116.332" stroke="#444444" stroke-width="2"/>
</svg>
