<svg width="1391" height="506" viewBox="0 0 1391 506" fill="none" xmlns="http://www.w3.org/2000/svg">
<g opacity="0.1">
<path d="M1321.1 206.573C1304.3 206.984 1304.33 174.68 1268.83 145.234C1229.36 112.51 1193.27 122.661 1185.69 100.051C1178.52 78.7236 1203.03 45.2818 1231.64 34.7048C1279.8 16.9269 1347.04 61.1716 1358.07 115.528C1366.64 157.641 1341.53 206.054 1321.1 206.573Z" fill="white"/>
<path d="M338.107 198.573C354.9 198.984 354.875 166.68 390.375 137.234C429.845 104.51 465.934 114.661 473.517 92.0514C480.68 70.7236 456.172 37.2818 427.56 26.7048C379.401 8.92684 312.163 53.1716 301.13 107.528C292.568 149.641 317.679 198.054 338.107 198.573Z" fill="white"/>
<path d="M1111.1 306.911C1094.31 306.5 1094.33 338.804 1058.83 368.25C1019.36 400.974 983.272 390.823 975.689 413.432C968.526 434.76 993.034 468.202 1021.65 478.779C1069.81 496.557 1137.04 452.312 1148.08 397.956C1156.64 355.843 1131.53 307.429 1111.1 306.911Z" fill="white"/>
<path d="M69.3223 277.446C86.116 277.035 86.091 309.339 121.59 338.785C161.06 371.509 197.15 361.358 204.733 383.968C211.896 405.295 187.388 438.737 158.776 449.314C110.617 467.092 43.3786 422.847 32.346 368.491C23.7839 326.378 48.8947 277.965 69.3223 277.446Z" fill="white"/>
</g>
</svg>
