<svg width="1440" height="593" viewBox="0 0 1440 593" fill="none" xmlns="http://www.w3.org/2000/svg">
<path d="M1440 0H0V592H1440V0Z" fill="#060606"/>
<path d="M0 592C194.075 585.224 359.05 229.086 720 229C1080.95 228.914 1254.07 459.473 1440 461.339" stroke="#222" stroke-width="2"/>
<path d="M0 546C158.038 516.721 223.158 127.522 480.004 121.396C736.838 115.271 720.006 182.156 959.996 182.144C1200 182.156 1319.03 121.514 1440 121.396" stroke="#222" stroke-width="2"/>
<path d="M0 506C131.59 500.563 236.494 268.657 479.997 268.005C723.5 267.353 720.005 325.338 960.003 325.327C1200 325.327 1319.3 268.094 1440 268.005" stroke="#222" stroke-width="2"/>
<path d="M0 566C164.801 530.442 116.689 121.422 480 121.001C843.311 120.579 1189.95 380.582 1440 383.265" stroke="#222" stroke-width="2"/>
<path d="M0 483C122.648 482.305 239.725 355.013 480 355C720.275 354.987 720 424.383 960 424.37C1200 424.383 1319.22 355.107 1440 355" stroke="#222" stroke-width="2"/>
</svg>
