<?xml version="1.0" standalone="no"?>
<!DOCTYPE svg PUBLIC "-//W3C//DTD SVG 20010904//EN"
 "http://www.w3.org/TR/2001/REC-SVG-20010904/DTD/svg10.dtd">
<svg version="1.0" xmlns="http://www.w3.org/2000/svg"
 width="1280.000000pt" height="1280.000000pt" viewBox="0 0 1280.000000 1280.000000"
 preserveAspectRatio="xMidYMid meet">
<metadata>
Created by potrace 1.14, written by Peter Selinger 2001-2017
</metadata>
<g transform="translate(0.000000,1280.000000) scale(0.100000,-0.100000)"
fill="#000000" stroke="none">
<path d="M1539 11035 c-3 -2 -27 -6 -54 -9 -28 -2 -50 -5 -50 -6 0 -1 -14 -3
-31 -5 -17 -3 -60 -12 -95 -20 -35 -9 -74 -18 -87 -21 -13 -2 -53 -16 -90 -30
-37 -14 -71 -27 -77 -28 -21 -3 -190 -89 -213 -107 -14 -10 -28 -16 -33 -13
-5 3 -9 0 -9 -6 0 -6 -13 -16 -30 -21 -16 -6 -30 -15 -30 -20 0 -5 -14 -16
-31 -24 -16 -9 -38 -24 -47 -33 -10 -9 -38 -33 -62 -52 -55 -44 -155 -144
-200 -201 -19 -24 -43 -51 -53 -61 -9 -10 -14 -18 -10 -18 5 0 3 -4 -3 -8 -6
-4 -25 -29 -44 -57 -19 -27 -36 -52 -39 -55 -3 -3 -7 -12 -9 -20 -2 -8 -10
-22 -17 -30 -13 -15 -97 -185 -101 -205 -1 -5 -8 -23 -15 -40 -7 -16 -13 -33
-14 -37 -2 -5 -4 -10 -5 -13 -1 -3 -3 -8 -4 -12 -1 -5 -10 -35 -20 -68 -20
-68 -25 -88 -31 -130 -3 -16 -7 -41 -10 -55 -14 -66 -17 -107 -20 -260 -2
-161 8 -268 40 -410 14 -58 44 -160 55 -185 26 -59 50 -118 50 -126 0 -13 121
-222 151 -260 16 -20 29 -41 29 -47 0 -6 3 -12 8 -14 4 -1 27 -28 52 -58 38
-46 169 -180 212 -215 62 -52 165 -125 175 -125 7 0 13 -4 13 -8 0 -4 33 -25
73 -46 39 -21 79 -42 87 -46 30 -18 107 -49 175 -73 135 -47 140 -48 225 -63
19 -4 44 -8 55 -11 65 -12 158 -18 295 -17 535 4 6331 5 6355 1 17 -3 50 -9
75 -12 59 -10 90 -16 160 -35 25 -7 50 -16 56 -21 6 -5 13 -7 15 -4 5 4 200
-90 259 -126 19 -12 37 -25 38 -30 2 -5 8 -9 14 -9 5 0 15 -6 23 -12 7 -7 32
-29 56 -48 41 -33 90 -82 159 -160 92 -103 220 -343 245 -460 2 -8 4 -15 5
-15 2 0 10 -33 14 -55 1 -8 5 -28 9 -45 3 -16 9 -48 13 -70 10 -56 12 -303 3
-345 -4 -19 -10 -48 -13 -65 -10 -57 -16 -85 -27 -112 -6 -16 -9 -28 -8 -28 7
0 -49 -147 -73 -189 -5 -11 -22 -40 -36 -65 -13 -25 -34 -59 -46 -76 -216
-311 -521 -506 -881 -561 -27 -4 -786 -9 -1685 -11 -1852 -4 -3398 -11 -3450
-16 -19 -1 -41 -6 -47 -10 -7 -5 -13 -6 -13 -3 0 14 -159 -55 -187 -81 -8 -7
-27 -20 -43 -30 -17 -9 -30 -20 -30 -23 0 -4 -17 -25 -38 -48 -56 -60 -106
-165 -129 -272 -8 -37 -3 -160 7 -205 22 -91 84 -206 142 -265 30 -30 64 -62
75 -71 26 -21 141 -78 171 -84 12 -3 32 -8 45 -11 26 -8 1118 -14 1131 -7 4 3
301 4 660 3 1861 -6 3192 -7 3201 -1 6 3 69 6 140 7 134 2 271 10 315 19 25 6
87 15 125 19 11 1 25 5 32 9 6 4 24 9 40 12 64 9 99 17 116 26 9 5 17 7 17 4
0 -2 17 1 38 9 43 16 70 25 77 26 24 1 311 127 347 152 14 10 29 18 32 18 19
0 325 203 346 229 3 3 21 18 41 33 82 61 287 276 364 382 16 23 32 43 35 46
14 11 70 99 70 109 0 6 4 11 9 11 5 0 16 15 25 33 9 17 21 39 26 47 67 104
202 410 225 510 2 8 11 42 20 75 20 70 46 189 50 225 1 14 3 25 4 25 1 0 4 14
7 30 24 169 24 572 -1 695 -3 14 -7 41 -10 60 -3 19 -7 46 -11 60 -3 14 -10
45 -15 70 -27 131 -138 449 -161 458 -4 2 -4 10 -1 18 3 8 1 14 -5 14 -5 0
-12 10 -16 23 -3 12 -21 48 -40 79 -18 31 -32 59 -30 61 3 2 -2 10 -11 17 -8
7 -15 16 -15 21 0 10 -134 210 -166 248 -140 165 -159 186 -305 323 -41 39
-179 144 -259 198 -130 87 -243 147 -425 225 -33 14 -144 56 -160 60 -5 1 -17
5 -25 8 -25 11 -243 65 -285 71 -22 4 -53 9 -70 11 -16 3 -57 8 -90 11 -33 3
-78 7 -100 9 -22 2 -1514 4 -3315 5 -3187 1 -3277 1 -3343 20 -70 20 -169 66
-208 97 -57 46 -151 148 -143 156 2 2 -2 10 -11 17 -8 7 -15 16 -15 20 0 4 -8
25 -17 46 -17 40 -18 42 -28 84 -25 102 -24 191 0 280 7 25 19 59 26 75 7 17
13 32 14 35 7 24 32 67 42 73 7 4 13 13 13 18 0 6 29 39 65 73 62 61 179 130
235 140 14 2 25 5 25 6 0 1 9 4 20 7 24 7 6656 12 6668 6 5 -3 41 -7 80 -9 40
-2 90 -6 112 -9 22 -3 56 -7 75 -9 71 -8 128 -18 245 -43 149 -31 139 -29 205
-48 30 -8 66 -18 79 -21 13 -3 31 -9 40 -13 9 -5 19 -9 24 -10 23 -1 212 -68
297 -104 19 -8 38 -16 42 -17 9 -1 153 -71 223 -107 28 -15 65 -33 83 -42 17
-8 32 -19 32 -23 0 -4 9 -8 20 -8 11 0 20 -4 20 -9 0 -5 10 -13 22 -17 13 -4
34 -15 48 -24 14 -10 68 -46 120 -80 52 -35 97 -66 98 -71 2 -5 8 -9 13 -9 16
0 155 -110 284 -225 140 -125 310 -300 387 -401 12 -16 25 -31 29 -34 12 -9
179 -238 179 -245 0 -4 11 -20 25 -37 14 -16 25 -36 25 -43 0 -7 4 -15 9 -17
11 -4 141 -231 141 -246 0 -7 5 -12 11 -12 5 0 8 -4 5 -9 -3 -5 1 -14 9 -21 8
-7 15 -16 15 -21 0 -5 17 -46 38 -91 50 -108 87 -201 84 -210 -1 -5 2 -8 8 -8
5 0 10 -6 10 -14 0 -8 5 -27 12 -43 6 -15 12 -32 13 -38 2 -5 17 -53 34 -105
17 -52 32 -104 34 -115 2 -11 9 -40 16 -65 16 -54 20 -71 41 -175 18 -90 20
-100 25 -135 3 -19 7 -48 10 -65 5 -29 8 -57 22 -180 8 -80 8 -584 -1 -660
-18 -149 -32 -250 -36 -250 -1 0 -3 -11 -4 -25 -7 -63 -48 -248 -89 -395 -17
-59 -92 -273 -117 -330 -28 -66 -33 -80 -32 -87 1 -5 -3 -8 -10 -8 -6 0 -9 -3
-5 -6 6 -6 -130 -278 -176 -351 -15 -24 -27 -45 -27 -47 0 -9 -173 -261 -181
-264 -5 -2 -9 -10 -9 -17 0 -7 -4 -15 -8 -17 -4 -1 -21 -21 -37 -43 -44 -58
-57 -74 -87 -105 -16 -16 -28 -31 -28 -34 0 -6 -131 -145 -212 -225 -87 -86
-193 -179 -298 -260 -36 -28 -69 -54 -75 -59 -27 -21 -146 -102 -150 -102 -3
0 -15 -8 -26 -19 -11 -10 -37 -27 -59 -37 -22 -10 -40 -22 -40 -26 0 -5 -7 -8
-15 -8 -8 0 -15 -4 -15 -8 0 -4 -15 -15 -32 -23 -18 -9 -89 -45 -158 -80 -114
-59 -307 -148 -334 -154 -6 -1 -22 -7 -36 -12 -30 -12 -209 -73 -230 -79 -8
-2 -33 -8 -55 -15 -54 -15 -323 -77 -360 -83 -62 -10 -131 -19 -160 -21 -16
-1 -30 -3 -30 -4 0 -7 -226 -22 -352 -24 -55 -1 -99 -5 -97 -9 3 -5 -2 -8 -11
-8 -10 0 -13 5 -9 12 5 7 3 8 -7 3 -20 -13 -51 -14 -73 -3 -14 7 -16 7 -11 -2
5 -9 1 -9 -16 1 -13 7 -25 12 -26 11 -2 -1 -5 -2 -8 -1 -7 1 -53 1 -62 0 -5
-1 -1 -6 7 -11 12 -7 8 -10 -15 -10 -87 -1 -212 -60 -300 -143 -36 -34 -65
-67 -65 -74 0 -7 -4 -13 -10 -13 -5 0 -10 -7 -10 -15 0 -8 -4 -15 -10 -15 -5
0 -10 -8 -10 -18 0 -10 -4 -22 -9 -28 -16 -17 -36 -87 -46 -156 -2 -20 -5 -41
-6 -45 -1 -4 0 -10 1 -13 1 -3 3 -25 6 -50 7 -89 12 -108 45 -175 10 -22 19
-43 19 -47 0 -28 146 -169 205 -198 28 -14 52 -28 55 -31 3 -3 34 -12 70 -21
54 -14 115 -16 370 -13 286 4 346 7 445 20 22 3 65 8 95 11 30 3 66 8 80 10
14 3 39 7 55 9 41 5 95 14 125 20 14 3 36 7 50 10 14 3 36 7 50 10 14 3 36 8
50 11 20 4 192 46 235 58 77 21 115 32 195 58 91 30 293 103 355 129 17 7 32
13 35 14 51 18 364 172 445 219 33 20 67 39 75 43 57 26 333 206 376 244 11
11 23 19 27 19 4 0 15 6 24 14 10 8 59 46 108 85 117 93 117 93 205 169 99 86
380 369 380 383 0 5 5 7 10 4 6 -3 10 -2 10 3 0 5 12 22 26 38 14 16 42 49 62
74 20 25 40 47 43 50 4 3 50 64 103 135 53 72 100 135 104 140 37 46 192 293
192 306 0 5 3 9 8 9 4 0 12 10 17 23 17 35 69 131 75 137 10 10 140 286 140
298 0 7 5 12 10 12 6 0 10 5 10 11 0 5 27 79 59 162 33 84 63 161 67 172 4 11
8 28 9 37 1 10 8 24 15 33 7 8 9 15 5 15 -4 0 -2 7 5 15 7 8 10 15 7 15 -3 0
5 31 18 70 13 39 21 70 18 70 -3 0 -1 6 5 13 5 6 13 26 16 42 3 17 16 75 30
130 27 111 61 276 71 345 4 25 8 56 11 70 8 54 13 98 20 160 3 36 8 79 10 95
25 213 19 749 -11 935 -3 19 -7 55 -10 80 -3 25 -7 59 -10 75 -2 17 -7 46 -10
65 -3 19 -10 59 -16 87 -6 29 -12 65 -14 80 -2 16 -4 28 -5 28 -2 0 -3 5 -15
60 -3 17 -8 41 -11 55 -3 14 -7 32 -9 40 -2 8 -4 15 -5 15 -1 0 -3 7 -5 15 -2
8 -6 26 -9 40 -19 91 -126 420 -157 484 -11 22 -19 44 -19 49 0 31 -190 429
-268 563 -22 38 -40 72 -41 77 0 4 -16 29 -35 55 -18 27 -42 64 -51 82 -10 19
-23 40 -29 47 -21 24 -31 38 -45 66 -8 15 -18 27 -23 27 -5 0 -6 5 -3 10 3 6
2 10 -2 10 -5 0 -16 12 -25 28 -14 24 -29 44 -68 90 -6 6 -8 12 -5 12 3 0 -3
8 -12 18 -33 35 -53 62 -53 72 0 6 -4 10 -8 10 -5 0 -23 19 -40 43 -17 23 -44
57 -61 75 -17 18 -31 38 -31 43 0 6 -4 7 -10 4 -5 -3 -10 -2 -10 3 0 28 -312
341 -494 494 -12 10 -34 29 -51 43 -16 14 -55 45 -85 68 -30 23 -64 50 -74 60
-11 9 -23 17 -26 17 -4 0 -18 10 -31 21 -29 26 -273 189 -311 208 -16 8 -28
18 -28 23 0 4 -4 8 -10 8 -5 0 -42 19 -82 43 -66 39 -367 190 -459 231 -20 8
-87 35 -150 59 -63 25 -123 48 -134 52 -11 5 -22 9 -25 10 -3 1 -12 4 -20 7
-8 3 -33 11 -55 17 -22 7 -98 30 -168 51 -70 22 -131 39 -135 38 -4 -1 -14 1
-22 5 -16 6 -126 33 -170 41 -14 3 -50 10 -80 16 -30 6 -66 13 -80 15 -14 2
-40 6 -57 9 -85 15 -101 18 -138 22 -22 3 -60 7 -85 9 -25 2 -67 7 -95 9 -27
3 -81 9 -120 12 -38 4 -1510 9 -3270 10 -1760 2 -3279 6 -3376 8 -97 3 -178 4
-180 1z"/>
<path d="M4646 2872 c-3 -6 -14 -9 -24 -8 -34 6 -169 -50 -236 -98 -53 -37
-116 -109 -154 -176 -20 -36 -37 -67 -38 -70 0 -3 -6 -25 -13 -50 -8 -25 -14
-61 -16 -81 -1 -20 -4 -40 -7 -45 -9 -18 8 -144 28 -202 15 -47 49 -116 67
-140 26 -33 124 -128 152 -148 152 -103 372 -121 542 -42 60 27 153 97 187
140 14 18 31 40 38 48 20 23 65 121 79 171 13 49 20 103 19 164 0 38 -2 53
-16 120 -7 32 -62 157 -74 165 -4 3 -9 10 -11 16 -15 42 -152 157 -219 184
-19 7 -39 17 -45 20 -34 24 -235 46 -235 26 0 -6 -4 -5 -9 3 -5 8 -11 9 -15 3z"/>
<path d="M6087 2874 c-1 -1 -26 -4 -55 -8 -29 -3 -60 -10 -70 -15 -9 -5 -46
-21 -81 -37 -35 -16 -74 -39 -87 -51 -13 -12 -24 -20 -24 -17 0 9 -73 -73
-103 -115 -34 -50 -88 -171 -81 -183 3 -4 2 -8 -3 -8 -13 0 -15 -175 -3 -237
20 -99 76 -200 155 -278 58 -57 153 -121 195 -131 3 0 12 -3 20 -6 68 -25 221
-32 300 -15 50 11 120 40 120 49 0 5 4 7 9 3 5 -3 16 2 25 10 8 9 18 15 21 15
12 -1 122 103 155 146 19 25 66 121 76 154 54 180 16 378 -101 519 -40 48
-115 116 -115 104 0 -3 -8 1 -17 9 -51 45 -174 85 -276 91 -31 2 -58 3 -60 1z"/>
</g>
</svg>
