<svg width="175" height="71" viewBox="0 0 175 71" fill="none" xmlns="http://www.w3.org/2000/svg">
<path d="M39.672 38.5243C39.6601 42.3176 38.1661 45.9557 35.5096 48.6608C32.853 51.3659 29.2446 52.9233 25.4559 53H24.9464C24.8778 53.0004 24.8093 52.9963 24.7412 52.9878C24.6746 52.9958 24.6076 52.9998 24.5405 53C24.1157 52.9991 23.7072 52.8361 23.3984 52.5441C23.0895 52.2521 22.9035 51.8532 22.8783 51.4287C22.8532 51.0042 22.9907 50.5861 23.2629 50.2596C23.5351 49.9331 23.9214 49.7228 24.3431 49.6717C24.3326 49.6825 24.3226 49.6939 24.3134 49.7059C24.3775 49.6869 24.4426 49.6718 24.5086 49.6606H24.5427C24.6106 49.6608 24.6783 49.6648 24.7457 49.6728H25.1416C25.0521 49.6546 24.9614 49.6431 24.8703 49.6385H24.7931C24.6977 49.6382 24.6025 49.6463 24.5086 49.6628C24.4532 49.6631 24.398 49.6668 24.3431 49.6739C24.3562 49.655 24.3677 49.6351 24.3773 49.6142C24.6254 49.6308 24.8758 49.6407 25.1283 49.6407C31.2896 49.6407 36.2842 44.6654 36.2842 38.5287C36.2842 32.392 31.2907 27.4133 25.1272 27.4133C25.0169 27.4133 24.9067 27.4133 24.7909 27.4133H5.27798C4.80764 27.425 4.36048 27.6202 4.03194 27.9573C3.7034 28.2944 3.5195 28.7467 3.5195 29.2177C3.5195 29.6886 3.7034 30.1409 4.03194 30.4781C4.36048 30.8152 4.80764 31.0104 5.27798 31.022V31.032H24.7909C24.9011 31.0264 25.0114 31.0242 25.1272 31.0242C27.0804 31.0147 28.96 31.7692 30.3655 33.1269C31.771 34.4846 32.5912 36.338 32.6513 38.2923C32.7115 40.2465 32.0067 42.147 30.6873 43.5887C29.3679 45.0303 27.5382 45.8991 25.5882 46.0099H24.7688V46.0541H16.9257L16.8981 46.0243H12.6855L12.7042 46.0541H9.56566C9.33264 46.06 9.10081 46.0191 8.88382 45.9339C8.66683 45.8487 8.46907 45.7208 8.30219 45.5579C8.13531 45.395 8.00269 45.2003 7.91214 44.9853C7.82159 44.7703 7.77494 44.5394 7.77494 44.306C7.77494 44.0727 7.82159 43.8418 7.91214 43.6268C8.00269 43.4118 8.13531 43.2171 8.30219 43.0542C8.46907 42.8913 8.66683 42.7634 8.88382 42.6782C9.10081 42.593 9.33264 42.5521 9.56566 42.558H14.74C14.8683 42.5281 14.9997 42.5133 15.1315 42.5138H24.428C24.5383 42.5238 24.6552 42.5282 24.7721 42.5282H24.7942C24.8482 42.5282 24.9045 42.5282 24.9585 42.5282L25.1151 42.5127L25.2143 42.5017L25.3026 42.4907C25.4906 42.467 25.6767 42.4302 25.8595 42.3803L25.9256 42.3615L26.0712 42.314L26.1583 42.2831C27.0717 41.9448 27.8317 41.2868 28.2978 40.4307C28.3143 40.402 28.3286 40.3733 28.3441 40.3446C28.3904 40.2541 28.4323 40.1625 28.4731 40.0687L28.5029 39.9914C28.5697 39.8241 28.6242 39.6522 28.6661 39.477C28.6738 39.4471 28.6815 39.4162 28.6882 39.3853C28.6948 39.3544 28.7014 39.3268 28.7069 39.297C28.7074 39.2937 28.7074 39.2904 28.7069 39.2871C28.7124 39.2595 28.7179 39.233 28.7223 39.2054C28.7323 39.1502 28.7411 39.095 28.7477 39.0365L28.7576 38.9526V38.9162C28.7631 38.8554 28.7676 38.7947 28.7709 38.7329C28.7742 38.6711 28.7764 38.5971 28.7764 38.5276C28.7738 37.4669 28.3518 36.4503 27.6027 35.7001C26.8537 34.9498 25.8384 34.5269 24.7787 34.5237H5.95951C5.73348 34.5525 5.50584 34.5669 5.27798 34.5667C3.87818 34.5667 2.5357 34.0101 1.54589 33.0193C0.556072 32.0284 0 30.6846 0 29.2834C0 27.8821 0.556072 26.5383 1.54589 25.5475C2.5357 24.5566 3.87818 24 5.27798 24C5.50584 23.9998 5.73348 24.0142 5.95951 24.0431H24.7909C24.9011 24.0431 25.0114 24.0431 25.1272 24.0431C33.1589 24.0397 39.672 30.5242 39.672 38.5243Z" fill="url(#paint0_linear)"/>
<path d="M14.7321 53C15.693 53 16.4721 52.221 16.4721 51.26C16.4721 50.299 15.693 49.52 14.7321 49.52C13.7711 49.52 12.9921 50.299 12.9921 51.26C12.9921 52.221 13.7711 53 14.7321 53Z" fill="url(#paint1_linear)"/>
<path d="M19.1399 53C20.1009 53 20.8799 52.221 20.8799 51.26C20.8799 50.299 20.1009 49.52 19.1399 49.52C18.1789 49.52 17.3999 50.299 17.3999 51.26C17.3999 52.221 18.1789 53 19.1399 53Z" fill="url(#paint2_linear)"/>
<path d="M59.125 27.45H52.55V45H59.125C64.725 45 68.325 41.425 68.325 36.225C68.325 31 64.725 27.45 59.125 27.45ZM56.825 41.3V31.1H58.85C62.075 31.1 63.975 33 63.975 36.225C63.975 39.45 62.075 41.3 58.85 41.3H56.825ZM77.1391 39.775L73.9141 31.05H69.1391L74.8141 44.525L71.6141 51.625H76.2141L84.9641 31.05H80.3391L77.1391 39.775ZM96.135 45H100.385V36.85C100.385 33.1 98.235 30.9 95.01 30.9C93.135 30.9 91.635 31.725 90.785 32.9V31.05H86.51V45H90.785V37.425C90.785 35.525 91.835 34.475 93.46 34.475C95.085 34.475 96.135 35.525 96.135 37.425V45ZM117.006 38.025C117.006 33.6 113.856 30.85 109.756 30.85C105.681 30.85 102.506 33.6 102.506 38.025C102.506 42.45 105.606 45.2 109.706 45.2C113.806 45.2 117.006 42.45 117.006 38.025ZM106.856 38.025C106.856 35.65 108.206 34.55 109.756 34.55C111.256 34.55 112.656 35.65 112.656 38.025C112.656 40.375 111.231 41.5 109.706 41.5C108.156 41.5 106.856 40.375 106.856 38.025ZM123.549 33.025V31.05H119.274V51.65H123.549V43.05C124.324 44.225 125.799 45.2 127.849 45.2C131.274 45.2 133.999 42.4 133.999 38C133.999 33.6 131.274 30.85 127.849 30.85C125.799 30.85 124.324 31.8 123.549 33.025ZM129.649 38C129.649 40.225 128.199 41.475 126.574 41.475C124.974 41.475 123.524 40.25 123.524 38.025C123.524 35.8 124.974 34.575 126.574 34.575C128.199 34.575 129.649 35.775 129.649 38ZM136.241 45H140.516V31.05H136.241V45ZM138.391 29.6C139.891 29.6 140.916 28.575 140.916 27.3C140.916 26 139.891 24.975 138.391 24.975C136.866 24.975 135.841 26 135.841 27.3C135.841 28.575 136.866 29.6 138.391 29.6ZM143.614 45H147.889V31.05H143.614V45ZM145.764 29.6C147.264 29.6 148.289 28.575 148.289 27.3C148.289 26 147.264 24.975 145.764 24.975C144.239 24.975 143.214 26 143.214 27.3C143.214 28.575 144.239 29.6 145.764 29.6Z" fill="white"/>
<defs>
<linearGradient id="paint0_linear" x1="-0.0264671" y1="38.5" x2="39.9896" y2="38.5" gradientUnits="userSpaceOnUse">
<stop stop-color="#8760F6"/>
<stop offset="0.14" stop-color="#8C58ED"/>
<stop offset="0.38" stop-color="#9943D3"/>
<stop offset="0.68" stop-color="#AF21AA"/>
<stop offset="0.76" stop-color="#B5179E"/>
<stop offset="0.88" stop-color="#B7199E"/>
<stop offset="0.93" stop-color="#BE1FA0"/>
<stop offset="0.96" stop-color="#C92BA3"/>
<stop offset="0.98" stop-color="#DA3BA7"/>
<stop offset="0.99" stop-color="#E849AA"/>
<stop offset="1" stop-color="#EC5EA0"/>
</linearGradient>
<linearGradient id="paint1_linear" x1="12.9921" y1="51.26" x2="16.4732" y2="51.26" gradientUnits="userSpaceOnUse">
<stop stop-color="#3A0CA3"/>
<stop offset="0.17" stop-color="#3B15AB"/>
<stop offset="0.45" stop-color="#3E2FC2"/>
<stop offset="0.53" stop-color="#3F37C9"/>
<stop offset="0.63" stop-color="#4041D2"/>
<stop offset="1" stop-color="#4361EE"/>
</linearGradient>
<linearGradient id="paint2_linear" x1="570.755" y1="910.368" x2="676.164" y2="910.368" gradientUnits="userSpaceOnUse">
<stop stop-color="#3A0CA3"/>
<stop offset="0.17" stop-color="#3B15AB"/>
<stop offset="0.45" stop-color="#3E2FC2"/>
<stop offset="0.53" stop-color="#3F37C9"/>
<stop offset="0.63" stop-color="#4041D2"/>
<stop offset="1" stop-color="#4361EE"/>
</linearGradient>
</defs>
</svg>
