<svg width="1440" height="999" viewBox="0 0 1440 999" fill="none" xmlns="http://www.w3.org/2000/svg">
<path d="M1440 0H0V998H1440V0Z" fill="#222222"/>
<path d="M0 998C194.926 903.998 104.734 255.651 480.004 251.052C855.261 246.453 1189.52 549.373 1440 552.572" stroke="#333333" stroke-width="2"/>
<path d="M0 824C180.637 764.585 211.49 268.857 479.996 255.982C748.513 243.107 719.994 361.045 960.004 361.045C1200 361.045 1316.89 256.651 1440 255.982" stroke="#333333" stroke-width="2"/>
<path d="M0 921C146.441 903.032 232.284 560.081 480 558.03C727.716 555.979 719.995 660.855 960 660.855C1199.99 660.855 1317.58 558.542 1440 558.03" stroke="#333333" stroke-width="2"/>
<path d="M0 921C202.347 833.317 45.1068 317.41 480 278.905C914.893 240.401 1194.03 102.09 1440 101" stroke="#333333" stroke-width="2"/>
<path d="M0 896C214.046 879.508 315.894 529.593 720 512.326C1124.11 495.058 1247.91 296.535 1440 293" stroke="#333333" stroke-width="2"/>
</svg>
