<svg width="1440" height="571" viewBox="0 0 1440 571" fill="none" xmlns="http://www.w3.org/2000/svg">
<path d="M1440 0H0V571H1440V0Z" fill="#060606"/>
<path d="M0 501C210.95 486.32 356.452 128.421 720 128.001C1083.55 127.581 1250.06 328.672 1440 331.391" stroke="#222" stroke-width="2"/>
<path d="M0 549C193.444 543.706 358.249 253.178 720 253C1081.75 252.822 1256.52 400.294 1440 400.993" stroke="#222" stroke-width="2"/>
<path d="M0 537C158.223 506.441 114.944 96.8642 480 96.0029C845.056 95.1415 1195.49 287.184 1440 288.071" stroke="#222" stroke-width="2"/>
<path d="M0 458C203.856 447.576 355.689 120.579 720 120.002C1084.31 119.425 1255.49 261.324 1440 262.198" stroke="#222" stroke-width="2"/>
<path d="M0 519C218.867 500.436 355.6 137.512 720 137.001C1084.4 136.49 1246.76 345.352 1440 349.084" stroke="#222" stroke-width="2"/>
</svg>
