<svg width="1201" height="370" viewBox="0 0 1201 370" fill="none" xmlns="http://www.w3.org/2000/svg">
<path d="M1194 0.000488281H7.83325C4.51954 0.000488281 1.83325 2.68678 1.83325 6.00049V364C1.83325 367.314 4.51952 370 7.83322 370H1194C1197.31 370 1200 367.314 1200 364V6.00049C1200 2.68678 1197.31 0.000488281 1194 0.000488281Z" fill="#333333"/>
<path d="M1 320C167.854 316.736 169.526 208.368 491 205C812.487 201.632 1044.16 126.692 1200 126" stroke="#444444" stroke-width="2"/>
<path d="M2 288C176.067 283.178 191.646 204.058 493 204C794.354 203.942 1039.18 273.415 1200 274.901" stroke="#444444" stroke-width="2"/>
<path d="M1 98.0228C157.736 96.204 190.56 204.041 490.183 204.005C789.806 203.97 1046.94 235.616 1199 236" stroke="#444444" stroke-width="2"/>
<path d="M2 173.242C167.312 169.759 193.448 205.07 494.757 204.931C666.067 204.852 812.018 248.636 942 275C1040.63 295.005 1130.88 313.824 1197 314" stroke="#444444" stroke-width="2"/>
<path d="M2 359.001C195.467 349.08 176.682 209.401 491 208C805.305 206.599 1044.03 25.7958 1197 25.9999" stroke="#444444" stroke-width="2"/>
<path d="M572.996 192.302C575.58 192.302 577.813 192.79 579.694 193.764C581.598 194.716 583.049 196.088 584.046 197.878C585.066 199.669 585.576 201.777 585.576 204.202C585.576 206.628 585.066 208.736 584.046 210.526C583.049 212.294 581.598 213.654 579.694 214.606C577.813 215.536 575.58 216 572.996 216H565.618V192.302H572.996ZM572.996 213.45C576.056 213.45 578.391 212.646 580 211.036C581.609 209.404 582.414 207.126 582.414 204.202C582.414 201.256 581.598 198.955 579.966 197.3C578.357 195.646 576.033 194.818 572.996 194.818H568.712V213.45H572.996ZM599.155 197.028C600.56 197.028 601.83 197.334 602.963 197.946C604.096 198.536 604.98 199.431 605.615 200.632C606.272 201.834 606.601 203.296 606.601 205.018V216H603.541V205.46C603.541 203.602 603.076 202.185 602.147 201.21C601.218 200.213 599.948 199.714 598.339 199.714C596.707 199.714 595.404 200.224 594.429 201.244C593.477 202.264 593.001 203.749 593.001 205.698V216H589.907V190.84H593.001V200.02C593.613 199.068 594.452 198.332 595.517 197.81C596.605 197.289 597.818 197.028 599.155 197.028ZM636.725 197.368L630.911 216H627.715L623.227 201.21L618.739 216H615.543L609.695 197.368H612.857L617.141 213.008L621.765 197.368H624.927L629.449 213.042L633.665 197.368H636.725ZM638.89 206.616C638.89 204.712 639.275 203.046 640.046 201.618C640.816 200.168 641.87 199.046 643.208 198.252C644.568 197.459 646.075 197.062 647.73 197.062C649.362 197.062 650.778 197.414 651.98 198.116C653.181 198.819 654.076 199.703 654.666 200.768V197.368H657.794V216H654.666V212.532C654.054 213.62 653.136 214.527 651.912 215.252C650.71 215.955 649.305 216.306 647.696 216.306C646.041 216.306 644.545 215.898 643.208 215.082C641.87 214.266 640.816 213.122 640.046 211.648C639.275 210.175 638.89 208.498 638.89 206.616ZM654.666 206.65C654.666 205.245 654.382 204.021 653.816 202.978C653.249 201.936 652.478 201.142 651.504 200.598C650.552 200.032 649.498 199.748 648.342 199.748C647.186 199.748 646.132 200.02 645.18 200.564C644.228 201.108 643.468 201.902 642.902 202.944C642.335 203.987 642.052 205.211 642.052 206.616C642.052 208.044 642.335 209.291 642.902 210.356C643.468 211.399 644.228 212.204 645.18 212.77C646.132 213.314 647.186 213.586 648.342 213.586C649.498 213.586 650.552 213.314 651.504 212.77C652.478 212.204 653.249 211.399 653.816 210.356C654.382 209.291 654.666 208.056 654.666 206.65ZM672.35 197.028C674.617 197.028 676.453 197.72 677.858 199.102C679.264 200.462 679.966 202.434 679.966 205.018V216H676.906V205.46C676.906 203.602 676.442 202.185 675.512 201.21C674.583 200.213 673.314 199.714 671.704 199.714C670.072 199.714 668.769 200.224 667.794 201.244C666.842 202.264 666.366 203.749 666.366 205.698V216H663.272V197.368H666.366V200.02C666.978 199.068 667.806 198.332 668.848 197.81C669.914 197.289 671.081 197.028 672.35 197.028ZM686.868 194.342C686.279 194.342 685.78 194.138 685.372 193.73C684.964 193.322 684.76 192.824 684.76 192.234C684.76 191.645 684.964 191.146 685.372 190.738C685.78 190.33 686.279 190.126 686.868 190.126C687.435 190.126 687.911 190.33 688.296 190.738C688.704 191.146 688.908 191.645 688.908 192.234C688.908 192.824 688.704 193.322 688.296 193.73C687.911 194.138 687.435 194.342 686.868 194.342ZM688.364 197.368V216H685.27V197.368H688.364Z" fill="#F2F2F2"/>
<path d="M525.85 227.945C538.246 208.974 532.915 183.546 513.944 171.15C494.973 158.755 469.545 164.085 457.15 183.057C444.754 202.028 450.085 227.455 469.056 239.851C488.027 252.247 513.454 246.916 525.85 227.945Z" fill="url(#paint0_linear)"/>
<path fill-rule="evenodd" clip-rule="evenodd" d="M480.648 184.685C471.251 184.666 463.616 194.058 463.593 205.663C474.488 205.685 475.559 205.687 476.055 205.688L480.606 205.697C483.754 205.703 484.793 205.706 485.422 205.707C485.443 217.197 493.077 226.504 502.491 226.504C511.919 226.504 519.561 217.171 519.561 205.659C507.949 205.659 507.459 205.659 506.969 205.659H502.491H497.619C497.611 194.087 490.024 184.703 480.648 184.685Z" fill="url(#paint1_linear)"/>
<defs>
<linearGradient id="paint0_linear" x1="359.62" y1="121.978" x2="543.698" y2="242.939" gradientUnits="userSpaceOnUse">
<stop stop-color="white"/>
<stop offset="0.207643" stop-color="#A5A5A5"/>
<stop offset="0.869037"/>
</linearGradient>
<linearGradient id="paint1_linear" x1="467.367" y1="193.678" x2="517.591" y2="218.954" gradientUnits="userSpaceOnUse">
<stop stop-color="#8B5BF1"/>
<stop offset="1" stop-color="#D637A6"/>
</linearGradient>
</defs>
</svg>
