<svg width="1200" height="370" viewBox="0 0 1200 370" fill="none" xmlns="http://www.w3.org/2000/svg">
<path d="M1194 0H6C2.68629 0 0 2.68629 0 6V364C0 367.314 2.68629 370 5.99999 370H1194C1197.31 370 1200 367.314 1200 364V6C1200 2.68629 1197.31 0 1194 0Z" fill="#444444"/>
<path d="M1200 5.99999C1200 2.68628 1197.31 0 1194 0H1105.49C1099.74 0 1097.28 7.32168 1101.88 10.7894L1190.39 77.5754C1194.34 80.5584 1200 77.7384 1200 72.786V5.99999Z" fill="white" fill-opacity="0.1"/>
<path d="M1085.57 0C1086.87 0 1088.14 0.424967 1089.18 1.21055L1199.27 84.278C1199.73 84.6256 1200 85.1693 1200 85.7464V85.7464C1200 86.8805 1198.98 87.7445 1197.86 87.5621L733.604 11.9219C726.321 10.7354 727.19 0 734.569 0H1085.57Z" fill="white" fill-opacity="0.075"/>
<path d="M659.944 0C660.267 0 660.59 0.0261128 660.909 0.0780835L1194.96 87.0896C1197.87 87.5626 1200 90.0703 1200 93.0116V144.834C1200 148.636 1196.51 151.479 1192.79 150.71L520.535 11.876C513.46 10.4149 514.524 0 521.748 0H659.944Z" fill="white" fill-opacity="0.05"/>
<path d="M462.417 0C462.825 0 463.231 0.0415482 463.631 0.124L1195.21 151.211C1198 151.787 1200 154.242 1200 157.087V281.888C1200 285.901 1196.14 288.782 1192.29 287.64L263.751 11.7515C257.117 9.78035 258.54 0 265.46 0H462.417Z" fill="white" fill-opacity="0.025"/>
<path d="M0 364C0 367.313 2.68629 370 6 370H481.77C489.06 370 490.042 359.447 482.876 358.103L7.10637 268.843C3.4137 268.15 0 270.983 0 274.74V364Z" fill="black" fill-opacity="0.1"/>
<path d="M0 262.531C0 265.418 2.05609 267.896 4.89364 268.428L545.742 369.897C546.106 369.965 546.477 370 546.848 370H558.554C565.133 370 566.916 360.94 560.827 358.447L8.27293 132.266C4.32546 130.65 0 133.554 0 137.819V262.531Z" fill="black" fill-opacity="0.075"/>
<path d="M0 126.025C0 127.752 1.04405 129.307 2.64222 129.961L587.958 369.553C588.679 369.848 589.451 370 590.23 370H726.854C733.68 370 735.206 360.417 728.717 358.297L5.57489 121.982C2.82521 121.083 0 123.132 0 126.025V126.025Z" fill="black" fill-opacity="0.05"/>
<path d="M0 115.809C0 118.404 1.66903 120.705 4.13626 121.512L763.622 369.703C764.223 369.9 764.853 370 765.486 370H1010.36C1017.27 370 1018.7 360.236 1012.08 358.252L7.722 57.3436C3.87278 56.1903 0 59.0729 0 63.0911V115.809Z" fill="black" fill-opacity="0.025"/>
</svg>
