<svg width="1440" height="502" viewBox="0 0 1440 502" fill="none" xmlns="http://www.w3.org/2000/svg">
<path d="M1440 0H1V502H1440V0Z" fill="#222222"/>
<path d="M0 434C200.392 428.582 333.902 235.739 719.993 230.149C1106.1 224.559 1252.83 113.147 1440 112" stroke="#333333" stroke-width="2"/>
<path d="M0 434C209.055 422.909 358.073 135.135 720 135C1081.93 134.866 1246.86 326.853 1440 330.271" stroke="#333333" stroke-width="2"/>
<path d="M1 468C189.581 464.866 360.002 201.061 720.5 201C1081 200.939 1257.04 357.812 1440 358.473" stroke="#333333" stroke-width="2"/>
<path d="M0 468C199.041 459.72 357.22 136.331 720.005 136.001C1082.78 135.671 1255.49 292.726 1440 293.696" stroke="#333333" stroke-width="2"/>
<path d="M1 487C233.386 459.032 342.958 54.0532 720.508 50.1029C1098.04 46.1525 1256.26 157.259 1440 157.835" stroke="#333333" stroke-width="2"/>
</svg>
