<svg width="1440" height="953" viewBox="0 0 1440 953" fill="none" xmlns="http://www.w3.org/2000/svg">
<path d="M1440 0H0V953H1440V0Z" fill="#222222"/>
<path d="M0 908C193.026 829.358 114.467 269.891 479.996 269.001C845.537 268.112 1176.06 665.334 1440 674.895" stroke="#333333" stroke-width="2"/>
<path d="M0 877C150.687 857.26 231.286 531.184 480.004 529.032C728.722 526.879 720 634.147 959.996 634.147C1200 634.147 1316.71 529.735 1440 529.032" stroke="#333333" stroke-width="2"/>
<path d="M0 824C202.554 815.648 296.806 566.1 720 538.497C1143.19 510.895 1218.53 156.763 1440 136" stroke="#333333" stroke-width="2"/>
<path d="M0 933C214.784 911.9 356.226 452.556 720 452.001C1083.77 451.446 1248.07 717.512 1440 721.806" stroke="#333333" stroke-width="2"/>
<path d="M0 841C239.359 797.606 348.178 236.786 720 234.022C1091.82 231.257 1246.36 493.102 1440 497.885" stroke="#333333" stroke-width="2"/>
</svg>
